<svg width="326" height="108" viewBox="0 0 326 108" fill="none" xmlns="http://www.w3.org/2000/svg">
<circle cx="82.5" cy="39.5" r="39.5" fill="#B75AFF" fill-opacity="0.49"/>
<circle cx="43.5" cy="64.5" r="39.5" fill="#C046EB"/>
<path d="M40.084 104H35.62V81.104C35.62 77.808 36.676 75.12 38.788 73.04C40.932 70.96 43.572 69.92 46.708 69.92C50.164 69.92 52.756 70.8 54.484 72.56C56.244 74.288 57.124 76.416 57.124 78.944C57.124 82.176 55.62 84.496 52.612 85.904V86.096C56.74 87.28 58.804 90.144 58.804 94.688C58.804 100.896 55.14 104 47.812 104H41.812V99.776H47.764C49.972 99.776 51.588 99.328 52.612 98.432C53.636 97.536 54.148 96.096 54.148 94.112C54.148 92.384 53.588 91.056 52.468 90.128C51.38 89.2 49.892 88.736 48.004 88.736H43.252V84.752H46.324C48.052 84.752 49.524 84.288 50.74 83.36C51.988 82.4 52.612 81.12 52.612 79.52C52.612 77.984 52.132 76.704 51.172 75.68C50.244 74.656 48.724 74.144 46.612 74.144C44.692 74.144 43.124 74.752 41.908 75.968C40.692 77.152 40.084 78.896 40.084 81.2V104ZM76.6491 90.464V94.784C75.4331 93.856 73.9451 93.392 72.1851 93.392C70.6811 93.392 69.5131 93.696 68.6811 94.304C67.8491 94.88 67.4331 95.712 67.4331 96.8C67.4331 98.912 69.0011 99.968 72.1371 99.968H78.4731V90.8C78.4731 86.928 76.5851 84.992 72.8091 84.992H65.1291V80.96H73.0491C76.1531 80.96 78.5371 81.728 80.2011 83.264C81.8651 84.8 82.6971 87.008 82.6971 89.888V104H71.9931C69.2731 104 67.1131 103.392 65.5131 102.176C63.9131 100.96 63.1131 99.184 63.1131 96.848C63.1131 94.512 63.9611 92.736 65.6571 91.52C67.3531 90.304 69.4811 89.696 72.0411 89.696C73.4811 89.696 75.0171 89.952 76.6491 90.464ZM88.2138 80.96H96.5178C100.07 80.96 102.614 81.488 104.15 82.544C105.526 83.472 106.39 84.592 106.742 85.904C107.126 87.184 107.318 88.88 107.318 90.992V104H103.094V91.04C103.094 90.464 103.078 89.984 103.046 89.6C103.014 89.184 102.902 88.672 102.71 88.064C102.518 87.424 102.246 86.912 101.894 86.528C101.542 86.112 101.03 85.76 100.358 85.472C99.6858 85.152 98.8698 84.992 97.9098 84.992H92.4378V104H88.2138V80.96ZM131.099 70.4H135.419V104H124.139C120.651 104 117.819 102.896 115.643 100.688C113.467 98.448 112.379 95.632 112.379 92.24C112.379 88.912 113.499 86.128 115.739 83.888C118.011 81.616 120.699 80.48 123.803 80.48C125.787 80.48 127.643 80.96 129.371 81.92V86.24C127.771 85.088 125.915 84.512 123.803 84.512C121.883 84.512 120.251 85.232 118.907 86.672C117.595 88.08 116.939 89.936 116.939 92.24C116.939 94.576 117.563 96.448 118.811 97.856C120.091 99.264 121.867 99.968 124.139 99.968H131.099V70.4ZM145.401 70.4V80.96H149.481C153.033 80.96 155.577 81.488 157.113 82.544C158.489 83.472 159.353 84.592 159.705 85.904C160.089 87.184 160.281 88.88 160.281 90.992V104H156.057V91.04C156.057 90.464 156.041 89.984 156.009 89.6C155.977 89.184 155.865 88.672 155.673 88.064C155.481 87.424 155.209 86.912 154.857 86.528C154.505 86.112 153.993 85.76 153.321 85.472C152.649 85.152 151.833 84.992 150.873 84.992H145.401V104H141.177V70.4H145.401ZM185.125 104H176.821C173.269 104 170.725 103.472 169.189 102.416C167.813 101.488 166.933 100.384 166.549 99.104C166.197 97.792 166.021 96.08 166.021 93.968V80.96H170.245V93.92C170.245 94.496 170.261 94.992 170.293 95.408C170.325 95.792 170.437 96.304 170.629 96.944C170.821 97.552 171.093 98.064 171.445 98.48C171.797 98.864 172.309 99.216 172.981 99.536C173.653 99.824 174.469 99.968 175.429 99.968H180.901V80.96H185.125V104ZM202.349 87.2C202.381 81.856 203.853 77.728 206.765 74.816C209.709 71.872 213.757 70.4 218.909 70.4H222.029V74.624H218.333C214.781 74.624 212.045 75.808 210.125 78.176C208.237 80.512 207.261 83.52 207.197 87.2C207.261 90.88 208.237 93.904 210.125 96.272C212.045 98.608 214.781 99.776 218.333 99.776H222.029V104H218.909C213.757 104 209.709 102.544 206.765 99.632C203.853 96.688 202.381 92.544 202.349 87.2ZM240.384 90.464V94.784C239.168 93.856 237.68 93.392 235.92 93.392C234.416 93.392 233.248 93.696 232.416 94.304C231.584 94.88 231.168 95.712 231.168 96.8C231.168 98.912 232.736 99.968 235.872 99.968H242.208V90.8C242.208 86.928 240.32 84.992 236.544 84.992H228.864V80.96H236.784C239.888 80.96 242.272 81.728 243.936 83.264C245.6 84.8 246.432 87.008 246.432 89.888V104H235.728C233.008 104 230.848 103.392 229.248 102.176C227.648 100.96 226.848 99.184 226.848 96.848C226.848 94.512 227.696 92.736 229.392 91.52C231.088 90.304 233.216 89.696 235.776 89.696C237.216 89.696 238.752 89.952 240.384 90.464ZM250.988 104V90.896C250.988 87.216 251.676 84.672 253.052 83.264C253.724 82.56 254.54 82.032 255.5 81.68C256.46 81.328 257.292 81.12 257.996 81.056C258.732 80.992 259.724 80.96 260.972 80.96H265.196V84.992H260.108C259.468 84.992 258.972 85.008 258.62 85.04C258.268 85.072 257.852 85.184 257.372 85.376C256.892 85.568 256.476 85.872 256.124 86.288C255.516 87.056 255.212 88.592 255.212 90.896V104H250.988ZM286.302 70.4H290.622V104H279.342C275.854 104 273.022 102.896 270.846 100.688C268.67 98.448 267.582 95.632 267.582 92.24C267.582 88.912 268.702 86.128 270.942 83.888C273.214 81.616 275.902 80.48 279.006 80.48C280.99 80.48 282.846 80.96 284.574 81.92V86.24C282.974 85.088 281.118 84.512 279.006 84.512C277.086 84.512 275.454 85.232 274.11 86.672C272.798 88.08 272.142 89.936 272.142 92.24C272.142 94.576 272.766 96.448 274.014 97.856C275.294 99.264 277.07 99.968 279.342 99.968H286.302V70.4Z" fill="white"/>
</svg>
